{
    "asset" : {
        "generator" : "Khronos glTF Blender I/O v3.2.40",
        "version" : "2.0"
    },
    "scene" : 0,
    "scenes" : [
        {
            "name" : "Scene",
            "nodes" : [
                0
            ]
        }
    ],
    "nodes" : [
        {
            "mesh" : 0,
            "name" : "Cube.005",
            "rotation" : [
                0.9676012992858887,
                0,
                0.2524833083152771,
                0
            ],
            "scale" : [
                -0.13364562392234802,
                -0.9040234088897705,
                -0.23473671078681946
            ],
            "translation" : [
                -4.604494571685791,
                1.8399293422698975,
                9.639885902404785
            ]
        }
    ],
    "materials" : [
        {
            "doubleSided" : true,
            "name" : "wood_texture",
            "normalTexture" : {
                "index" : 0
            },
            "pbrMetallicRoughness" : {
                "baseColorTexture" : {
                    "index" : 1
                },
                "metallicFactor" : 0,
                "metallicRoughnessTexture" : {
                    "index" : 2
                }
            }
        },
        {
            "doubleSided" : true,
            "name" : "plain_wood",
            "pbrMetallicRoughness" : {
                "baseColorFactor" : [
                    0.16513220965862274,
                    0.18447501957416534,
                    0.1384316384792328,
                    1
                ],
                "metallicFactor" : 0,
                "roughnessFactor" : 0.5
            }
        }
    ],
    "meshes" : [
        {
            "name" : "Cube.006",
            "primitives" : [
                {
                    "attributes" : {
                        "POSITION" : 0,
                        "NORMAL" : 1,
                        "TEXCOORD_0" : 2
                    },
                    "indices" : 3,
                    "material" : 0
                },
                {
                    "attributes" : {
                        "POSITION" : 4,
                        "NORMAL" : 5,
                        "TEXCOORD_0" : 6
                    },
                    "indices" : 7,
                    "material" : 1
                }
            ]
        }
    ],
    "textures" : [
        {
            "sampler" : 0,
            "source" : 0
        },
        {
            "sampler" : 0,
            "source" : 1
        },
        {
            "sampler" : 0,
            "source" : 2
        }
    ],
    "images" : [
        {
            "bufferView" : 4,
            "mimeType" : "image/png",
            "name" : "TexturesCom_Wood_SidingOutdoor9_3x1.5_512_normal"
        },
        {
            "bufferView" : 5,
            "mimeType" : "image/png",
            "name" : "TexturesCom_Wood_SidingOutdoor9_3x1.5_512_albedo"
        },
        {
            "bufferView" : 6,
            "mimeType" : "image/png",
            "name" : "TexturesCom_Wood_SidingOutdoor9_3x1.5_512_roughness"
        }
    ],
    "accessors" : [
        {
            "bufferView" : 0,
            "componentType" : 5126,
            "count" : 1218,
            "max" : [
                72.4248275756836,
                0.679513156414032,
                0.8440899848937988
            ],
            "min" : [
                -62.05908966064453,
                -1.0232359170913696,
                -91.67460632324219
            ],
            "type" : "VEC3"
        },
        {
            "bufferView" : 1,
            "componentType" : 5126,
            "count" : 1218,
            "type" : "VEC3"
        },
        {
            "bufferView" : 2,
            "componentType" : 5126,
            "count" : 1218,
            "type" : "VEC2"
        },
        {
            "bufferView" : 3,
            "componentType" : 5123,
            "count" : 1836,
            "type" : "SCALAR"
        },
        {
            "bufferView" : 7,
            "componentType" : 5126,
            "count" : 4903,
            "max" : [
                43.6163444519043,
                1.2483022212982178,
                -19.64535140991211
            ],
            "min" : [
                -33.250614166259766,
                -0.9291013479232788,
                -71.18515014648438
            ],
            "type" : "VEC3"
        },
        {
            "bufferView" : 8,
            "componentType" : 5126,
            "count" : 4903,
            "type" : "VEC3"
        },
        {
            "bufferView" : 9,
            "componentType" : 5126,
            "count" : 4903,
            "type" : "VEC2"
        },
        {
            "bufferView" : 10,
            "componentType" : 5123,
            "count" : 7440,
            "type" : "SCALAR"
        }
    ],
    "bufferViews" : [
        {
            "buffer" : 0,
            "byteLength" : 14616,
            "byteOffset" : 0
        },
        {
            "buffer" : 0,
            "byteLength" : 14616,
            "byteOffset" : 14616
        },
        {
            "buffer" : 0,
            "byteLength" : 9744,
            "byteOffset" : 29232
        },
        {
            "buffer" : 0,
            "byteLength" : 3672,
            "byteOffset" : 38976
        },
        {
            "buffer" : 0,
            "byteLength" : 133980,
            "byteOffset" : 42648
        },
        {
            "buffer" : 0,
            "byteLength" : 157161,
            "byteOffset" : 176628
        },
        {
            "buffer" : 0,
            "byteLength" : 71610,
            "byteOffset" : 333792
        },
        {
            "buffer" : 0,
            "byteLength" : 58836,
            "byteOffset" : 405404
        },
        {
            "buffer" : 0,
            "byteLength" : 58836,
            "byteOffset" : 464240
        },
        {
            "buffer" : 0,
            "byteLength" : 39224,
            "byteOffset" : 523076
        },
        {
            "buffer" : 0,
            "byteLength" : 14880,
            "byteOffset" : 562300
        }
    ],
    "samplers" : [
        {
            "magFilter" : 9729,
            "minFilter" : 9987
        }
    ],
    "buffers" : [
        {
            "byteLength" : 577180,
            "uri" : "data:application/octet-stream;base64,"
        }
    ]
}
