{
    "asset" : {
        "generator" : "Khronos glTF Blender I/O v3.2.40",
        "version" : "2.0"
    },
    "scene" : 0,
    "scenes" : [
        {
            "name" : "Scene",
            "nodes" : [
                0
            ]
        }
    ],
    "nodes" : [
        {
            "mesh" : 0,
            "name" : "Rose",
            "rotation" : [
                0,
                0.5723152756690979,
                0,
                0.8200336694717407
            ],
            "translation" : [
                0.05860090255737305,
                0,
                -0.018963158130645752
            ]
        }
    ],
    "materials" : [
        {
            "doubleSided" : true,
            "emissiveFactor" : [
                0.20000000298023224,
                0.20000000298023224,
                0.20000000298023224
            ],
            "emissiveTexture" : {
                "index" : 0
            },
            "name" : "Rose",
            "pbrMetallicRoughness" : {
                "baseColorTexture" : {
                    "index" : 1
                },
                "metallicFactor" : 0,
                "metallicRoughnessTexture" : {
                    "index" : 2
                }
            }
        }
    ],
    "meshes" : [
        {
            "name" : "Plane.003",
            "primitives" : [
                {
                    "attributes" : {
                        "POSITION" : 0,
                        "NORMAL" : 1,
                        "TEXCOORD_0" : 2,
                        "COLOR_0" : 3
                    },
                    "indices" : 4,
                    "material" : 0
                }
            ]
        }
    ],
    "textures" : [
        {
            "sampler" : 0,
            "source" : 0
        },
        {
            "sampler" : 0,
            "source" : 0
        },
        {
            "sampler" : 0,
            "source" : 1
        }
    ],
    "images" : [
        {
            "bufferView" : 5,
            "mimeType" : "image/jpeg",
            "name" : "Rose_Albedo"
        },
        {
            "bufferView" : 6,
            "mimeType" : "image/png",
            "name" : "Rose_Roughness"
        }
    ],
    "accessors" : [
        {
            "bufferView" : 0,
            "componentType" : 5126,
            "count" : 7504,
            "max" : [
                0.1675742119550705,
                0.5113488435745239,
                0.133856862783432
            ],
            "min" : [
                -0.14264658093452454,
                -0.0002435808564769104,
                -0.12737813591957092
            ],
            "type" : "VEC3"
        },
        {
            "bufferView" : 1,
            "componentType" : 5126,
            "count" : 7504,
            "type" : "VEC3"
        },
        {
            "bufferView" : 2,
            "componentType" : 5126,
            "count" : 7504,
            "type" : "VEC2"
        },
        {
            "bufferView" : 3,
            "componentType" : 5123,
            "count" : 7504,
            "normalized" : true,
            "type" : "VEC4"
        },
        {
            "bufferView" : 4,
            "componentType" : 5123,
            "count" : 42363,
            "type" : "SCALAR"
        }
    ],
    "bufferViews" : [
        {
            "buffer" : 0,
            "byteLength" : 90048,
            "byteOffset" : 0
        },
        {
            "buffer" : 0,
            "byteLength" : 90048,
            "byteOffset" : 90048
        },
        {
            "buffer" : 0,
            "byteLength" : 60032,
            "byteOffset" : 180096
        },
        {
            "buffer" : 0,
            "byteLength" : 60032,
            "byteOffset" : 240128
        },
        {
            "buffer" : 0,
            "byteLength" : 84726,
            "byteOffset" : 300160
        },
        {
            "buffer" : 0,
            "byteLength" : 383909,
            "byteOffset" : 384888
        },
        {
            "buffer" : 0,
            "byteLength" : 1694814,
            "byteOffset" : 768800
        }
    ],
    "samplers" : [
        {
            "magFilter" : 9729,
            "minFilter" : 9987
        }
    ],
    "buffers" : [
        {
            "byteLength" : 2463616,
            "uri" : "data:application/octet-stream;base64,"
        }
    ]
}
